<?xml version="1.0" standalone="no"?>
<!DOCTYPE svg PUBLIC "-//W3C//DTD SVG 20010904//EN"
 "http://www.w3.org/TR/2001/REC-SVG-20010904/DTD/svg10.dtd">
<svg version="1.0" xmlns="http://www.w3.org/2000/svg"
 width="500.000000pt" height="651.000000pt" viewBox="0 0 500.000000 651.000000"
 preserveAspectRatio="xMidYMid meet">
<metadata>
Created by potrace 1.16, written by Peter Selinger 2001-2019
</metadata>
<g transform="translate(0.000000,651.000000) scale(0.100000,-0.100000)"
fill="#000000" stroke="none">
<path d="M175 6497 c-59 -15 -148 -107 -163 -169 -17 -68 -17 -6078 0 -6146
16 -66 104 -154 170 -170 68 -17 4568 -17 4636 0 66 16 154 104 170 170 9 35
12 659 12 2532 l0 2484 -27 29 c-229 238 -308 320 -478 499 -110 115 -254 265
-321 334 -66 69 -163 170 -215 224 -51 54 -121 127 -155 162 l-61 64 -1764 -1
c-1198 -1 -1777 -4 -1804 -12z m3474 -1397 c99 -28 167 -125 159 -225 -10
-114 -106 -205 -218 -205 -109 0 -207 90 -218 200 -14 149 133 271 277 230z
m-2375 -363 c115 -65 104 -236 -18 -282 -78 -30 -144 -8 -194 66 -20 28 -23
44 -20 92 4 46 10 63 34 88 57 61 131 75 198 36z m1816 -1082 l0 -64 63 -3
c62 -3 62 -3 65 -35 l3 -33 -65 0 -66 0 0 -139 c0 -135 8 -187 33 -203 7 -4
29 -8 50 -8 35 0 37 -1 37 -34 0 -32 -2 -34 -45 -41 -54 -8 -107 14 -139 58
-19 26 -21 45 -24 198 l-4 169 -34 0 c-32 0 -34 2 -34 35 0 33 2 35 35 35 l35
0 0 55 c0 53 1 55 33 64 57 16 57 16 57 -54z m-859 -81 c70 -36 111 -119 112
-224 1 -141 -69 -235 -189 -255 -53 -8 -113 8 -148 40 l-26 24 0 -124 0 -125
-45 0 -45 0 -1 325 c-1 179 -2 331 -3 338 -1 17 65 22 75 5 5 -7 9 -25 9 -39
l0 -26 35 32 c19 18 51 37 72 43 44 12 116 6 154 -14z m1854 -19 c0 -38 -2
-40 -35 -45 -95 -16 -104 -36 -110 -240 l-5 -165 -42 -3 -43 -3 0 246 0 246
38 -3 c35 -3 37 -5 40 -40 l3 -37 31 34 c29 33 76 56 108 52 11 -2 15 -14 15
-42z m-2930 -230 l0 -260 -27 -56 c-31 -63 -81 -98 -145 -102 -36 -2 -38 0
-41 29 -3 28 0 32 26 37 17 3 43 17 58 31 l29 24 3 269 c1 147 5 274 7 281 3
9 19 12 47 10 l43 -3 0 -260z m255 85 c3 -96 9 -183 14 -193 20 -42 94 -59
145 -33 55 29 60 49 63 233 l3 168 45 0 45 0 0 -240 -1 -240 -36 -3 c-35 -3
-37 -1 -44 32 l-6 36 -34 -29 c-89 -79 -219 -58 -264 42 -17 36 -20 66 -20
225 l0 183 43 -3 42 -3 5 -175z m1162 -10 c47 -129 69 -179 74 -165 3 11 31
94 62 185 l57 165 33 3 c66 6 66 7 -22 -220 -106 -273 -151 -362 -210 -416
-41 -38 -82 -62 -106 -62 -6 0 -30 52 -30 66 0 2 17 12 39 23 41 21 82 64 107
112 14 28 11 37 -76 254 -49 123 -90 229 -90 235 0 7 18 10 47 8 l47 -3 68
-185z m1025 179 c69 -26 114 -101 116 -193 l2 -61 -169 -3 -168 -2 6 -32 c9
-43 31 -75 69 -98 47 -29 89 -34 161 -18 l65 15 6 -28 c4 -16 4 -33 1 -38 -10
-15 -135 -34 -186 -28 -85 10 -146 52 -186 127 -24 45 -25 178 -1 231 23 51
63 96 106 119 41 22 133 26 178 9z m-2050 -1625 c161 -78 202 -298 80 -431
-165 -180 -463 -84 -484 156 -20 222 202 373 404 275z m-137 -1429 l0 -355
-55 0 -55 0 0 355 0 355 55 0 55 0 0 -355z m519 330 c57 -33 75 -67 79 -146 5
-89 -15 -146 -69 -193 -45 -38 -130 -66 -202 -66 l-47 0 0 -140 0 -140 -55 0
-55 0 0 356 0 356 158 -4 c135 -3 162 -6 191 -23z m316 -127 c48 -84 88 -154
89 -155 1 -1 45 67 97 152 l94 154 53 1 c40 0 51 -3 46 -12 -10 -18 -125 -205
-190 -309 l-54 -86 0 -152 0 -151 -55 0 -55 0 0 145 0 145 -115 200 c-63 110
-115 205 -115 210 0 6 27 10 59 10 l59 0 87 -152z m666 22 c46 -72 122 -189
169 -260 l85 -129 3 259 2 260 45 0 45 0 0 -355 0 -355 -52 0 -53 0 -98 153
c-54 83 -132 203 -173 266 l-74 114 0 -266 0 -267 -45 0 -45 0 0 355 0 355 53
0 53 0 85 -130z m854 105 c79 -40 108 -131 66 -213 -21 -42 -42 -62 -86 -85
l-30 -15 29 -11 c81 -32 126 -96 126 -181 0 -57 -15 -93 -57 -132 -38 -37 -95
-47 -250 -48 l-133 0 0 356 0 356 148 -4 c123 -2 154 -6 187 -23z"/>
<path d="M2050 3504 c-51 -32 -65 -63 -68 -156 -3 -76 -1 -92 17 -122 46 -73
159 -82 215 -16 70 83 50 252 -35 296 -36 18 -97 18 -129 -2z"/>
<path d="M3439 3503 c-26 -22 -59 -76 -59 -98 0 -3 59 -5 131 -5 l131 0 -8 32
c-14 68 -53 98 -124 98 -27 0 -48 -8 -71 -27z"/>
<path d="M1690 664 l0 -136 53 7 c98 13 150 66 150 152 0 73 -57 111 -170 113
l-33 0 0 -136z"/>
<path d="M3540 685 l0 -117 48 7 c100 15 142 53 142 129 0 26 -7 40 -31 60
-17 14 -39 26 -48 26 -10 0 -39 3 -65 6 l-46 7 0 -118z"/>
<path d="M3540 376 l0 -127 58 6 c93 10 108 15 132 40 16 17 23 36 23 64 0 74
-66 129 -165 139 l-48 5 0 -127z"/>
</g>
</svg>
